<?xml version="1.0" standalone="no"?>
<!DOCTYPE svg PUBLIC "-//W3C//DTD SVG 20010904//EN"
 "http://www.w3.org/TR/2001/REC-SVG-20010904/DTD/svg10.dtd">
<svg version="1.0" xmlns="http://www.w3.org/2000/svg"
 width="260.000000pt" height="260.000000pt" viewBox="0 0 260.000000 260.000000"
 preserveAspectRatio="xMidYMid meet">
<metadata>
Created by potrace 1.14, written by Peter Selinger 2001-2017
</metadata>
<g transform="translate(0.000000,260.000000) scale(0.100000,-0.100000)"
fill="#000000" stroke="none">
<path d="M0 1300 l0 -1300 1300 0 1300 0 0 1300 0 1300 -1300 0 -1300 0 0
-1300z m1585 1106 c63 -27 72 -83 25 -171 -24 -46 -26 -55 -12 -51 123 38 407
90 464 84 27 -2 33 -7 33 -27 0 -20 -9 -27 -50 -41 -35 -12 -56 -14 -69 -8
-29 15 -184 -12 -388 -69 l-58 -16 -117 -173 c-113 -168 -142 -197 -157 -159
-3 8 34 73 89 157 52 78 93 144 91 145 -2 2 -75 -18 -162 -43 -87 -26 -170
-50 -184 -54 -30 -8 -29 -37 1 -61 30 -22 24 -103 -7 -107 -19 -3 -26 8 -49
67 -29 74 -35 78 -82 60 -111 -42 -400 -121 -469 -128 -119 -12 -203 5 -204
40 0 4 9 17 20 30 l20 24 20 -24 c20 -23 25 -24 103 -18 90 7 186 31 405 102
121 39 143 49 137 63 -17 43 -17 79 0 86 24 9 33 0 47 -45 9 -33 15 -40 32
-36 65 14 423 122 434 130 27 21 83 136 80 164 -3 31 -26 40 -100 42 -48 1
-64 11 -54 36 7 20 114 20 161 1z m-67 -548 c21 -21 13 -70 -23 -135 -20 -36
-32 -62 -28 -60 5 3 37 22 73 44 146 89 280 114 280 53 0 -21 -116 -194 -235
-349 -192 -252 -226 -299 -252 -349 -21 -40 -33 -52 -48 -50 -29 4 -34 66 -7
87 11 9 37 43 60 76 22 33 60 87 85 119 42 56 44 61 30 83 -8 13 -30 25 -49
29 -45 8 -63 30 -42 50 21 21 91 2 123 -32 l23 -25 89 123 c136 186 146 202
129 206 -45 10 -319 -162 -411 -258 -75 -77 -111 -98 -132 -77 -21 21 -8 41
76 115 69 61 189 226 206 281 6 21 5 23 -11 16 -37 -16 -69 -11 -69 10 0 38
104 72 133 43z m-470 -265 c2 -23 -11 -214 -27 -425 -17 -211 -34 -449 -37
-531 -7 -137 -6 -149 11 -161 18 -13 18 -19 6 -97 -19 -125 -29 -151 -54 -147
-22 3 -22 5 -21 238 2 199 23 598 39 720 2 19 -17 -28 -44 -105 -146 -424
-209 -535 -278 -489 -23 15 -25 21 -21 80 4 71 18 95 46 78 17 -11 18 -29 6
-84 -5 -23 -4 -24 11 -9 33 33 155 346 223 576 25 82 42 125 53 128 20 7 29
64 29 180 0 45 3 85 7 89 4 4 16 6 28 4 16 -2 21 -12 23 -45z m620 -175 c5 -7
13 -77 17 -155 8 -153 13 -165 56 -122 21 21 178 55 205 45 23 -9 16 -44 -8
-51 -13 -4 -74 -22 -136 -42 l-112 -35 4 -47 c3 -25 8 -107 11 -181 9 -193 22
-313 46 -404 17 -67 18 -81 6 -93 -11 -11 -35 1 -155 82 -78 53 -142 98 -142
100 0 15 14 35 26 35 7 0 54 -27 105 -60 51 -33 94 -58 96 -57 1 2 -2 19 -7
38 -10 38 -26 229 -36 427 -5 89 -11 132 -19 132 -6 0 -56 -15 -111 -33 -152
-52 -317 -91 -348 -83 -22 5 -27 12 -24 34 2 17 13 32 32 42 25 14 29 13 39
-1 12 -20 43 -13 271 59 l149 46 -5 163 c-3 89 -3 165 0 168 9 9 29 5 40 -7z
m-873 -132 c12 -17 15 -43 13 -92 -3 -61 -5 -69 -23 -69 -17 0 -20 8 -23 48
-2 38 -7 47 -21 47 -24 0 -45 25 -35 42 30 53 64 62 89 24z m597 -481 c10 -23
34 -38 54 -34 35 6 51 -42 18 -55 -52 -20 -124 29 -124 85 0 38 35 41 52 4z"/>
</g>
</svg>
